<svg xmlns="http://www.w3.org/2000/svg" width="1em" height="1em" viewBox="0 0 24 24">
  <title>prolog-playground</title>
  <svg x="1" y="1" width="18" height="18" viewBox="0 0 24 24" preserveAspectRatio="xMidYMid meet">
    <path fill="#3178c6" d="M22 12c0-5.523-4.477-10-10-10S2 6.477 2 12c0 1.643.397 3.23 1.145 4.65l-1.116 4.29a.85.85 0 0 0 1.036 1.036l4.29-1.117A9.96 9.96 0 0 0 12 22c5.523 0 10-4.477 10-10"/>
    <path fill="none" transform="translate(4.5 7) scale(.42)" stroke="white" stroke-linecap="round" stroke-width="3" d="M11.996 16.45v-1.378c0-1.674 1.495-2.967 2.81-4.003A4.544 4.544 0 1 0 7.71 5.983m4.286 14.011H12"/>
    <path fill="none" transform="translate(11.5 10) scale(.3)" stroke="white" stroke-linecap="round" stroke-linejoin="round" stroke-width="5" d="M4 8h16"/>
  </svg>
  <circle cx="17.5" cy="17.5" r="5.5" fill="var(--tp-paper-color, Canvas)"/>
  <g transform="translate(12.5 12.5) scale(.42)">
    <path fill="currentColor" d="M2.34 14.63c.6-.22 1.22-.33 1.88-.33q2.01 0 3.51 1.26L4.59 18.7a10.6 10.6 0 0 1-2.25-4.07M15.56 9.8c1.97 1.47 4.1 1.83 6.38 1.08c.03.21.06.59.06 1.12c0 1.03-.25 2.18-.72 3.45c-.47 1.26-1.05 2.28-1.73 3.05l-6.33-6.31zm-6.79 6.84c1.06 1.53 1.28 3.2.65 5.02c-1.42-.41-2.69-1.05-3.75-1.93zm3.42-3.42l6.31 6.33c-2.17 1.9-4.72 2.7-7.62 2.39c.21-.66.32-1.38.32-2.16c0-.62-.14-1.35-.42-2.18s-.61-1.51-.98-2.04zM8.81 14.5a6.7 6.7 0 0 0-3.23-1.59c-1.22-.23-2.39-.16-3.52.22c-.03-.22-.06-.6-.06-1.13c0-1.03.25-2.18.72-3.45c.47-1.26 1.05-2.28 1.73-3.05l6.66 6.69zm6.75-6.77c-1.34-1.65-1.65-3.45-.93-5.39c.62.16 1.33.46 2.13.92c.79.45 1.44.9 1.94 1.33zm6.1 1.65c-.6.21-1.22.32-1.88.32c-1.09 0-2.14-.32-3.14-.98l3.09-3.05c.88 1.1 1.52 2.33 1.93 3.71m-9.47 1.73L5.5 4.45c2.17-1.9 4.72-2.7 7.63-2.39q-.33.99-.33 2.16c0 .72.16 1.53.49 2.44c.33.9.71 1.62 1.21 2.15z"/>
  </g>
</svg>
